# xmcd CD database file
#
# Track frame offsets:
#	183
#	16415
#	36208
#	50625
#	70623
#	88125
#	107375
#	125125
#	141483
#	156880
#	177158
#	194988
#	217350
#	232295
#	255720
#
# Disc length: 3666 seconds
#
# Revision: 0
# Processed by: cddbd v1.5.2PL0 Copyright (c) Steve Scherf et al.
# Submitted via: CDex 1.51
#
DISCID=ee0e500f
DTITLE=張國榮 - 張國榮經典金曲精選 Disc 1
DYEAR=1992
DGENRE=New Age
TTITLE0=拒絕再玩
TTITLE1=無形鎖扣
TTITLE2=無心睡眠
TTITLE3=共同渡過
TTITLE4=夠了
TTITLE5=情難自控
TTITLE6=愛的兇手
TTITLE7=倩女幽魂
TTITLE8=熱辣辣
TTITLE9=奔向未來日子
TTITLE10=Hot Summer
TTITLE11=想妳
TTITLE12=貼身
TTITLE13=最愛
TTITLE14=烈火燈蛾
EXTD=YEAR: 1992
EXTT0=
EXTT1=
EXTT2=
EXTT3=
EXTT4=
EXTT5=
EXTT6=
EXTT7=
EXTT8=
EXTT9=
EXTT10=
EXTT11=
EXTT12=
EXTT13=
EXTT14=
PLAYORDER=
